<svg width="1317" height="244" viewBox="0 0 1317 244" fill="none" xmlns="http://www.w3.org/2000/svg">
<path d="M81.782 3.92917C113.018 3.92917 136.046 10.7692 150.866 24.4492C165.914 37.9012 173.438 56.7112 173.438 80.8792C173.438 91.8232 171.842 102.311 168.65 112.343C165.458 122.147 160.1 130.925 152.576 138.677C145.28 146.429 135.59 152.585 123.506 157.145C111.65 161.705 96.944 163.985 79.388 163.985H58.868V248.117H0.728002V3.92917H81.782ZM79.73 51.4672H58.868V116.447H74.258C82.238 116.447 89.192 115.307 95.12 113.027C101.276 110.747 106.064 107.099 109.484 102.083C112.904 97.0672 114.614 90.5692 114.614 82.5892C114.614 72.5572 111.764 64.9192 106.064 59.6752C100.364 54.2032 91.586 51.4672 79.73 51.4672ZM219.568 3.92917C241.684 3.92917 259.924 6.66517 274.288 12.1372C288.88 17.3812 299.824 25.4752 307.12 36.4192C314.416 47.1352 318.064 60.5872 318.064 76.7752C318.064 87.2632 316.126 96.6112 312.25 104.819C308.374 113.027 303.13 120.209 296.518 126.365C290.134 132.521 282.724 137.651 274.288 141.755L345.766 248.117H280.444L225.382 156.461H202.468V248.117H144.328V3.92917H219.568ZM217.174 49.7572H202.468V110.975H217.174C226.522 110.975 234.274 109.949 240.43 107.897C246.586 105.617 251.146 102.083 254.11 97.2952C257.302 92.2792 258.898 86.1232 258.898 78.8272C258.898 72.2152 257.416 66.8572 254.452 62.7532C251.488 58.4212 246.928 55.2292 240.772 53.1772C234.616 50.8972 226.75 49.7572 217.174 49.7572ZM525.647 125.681C525.647 144.605 523.367 161.819 518.807 177.323C514.247 192.599 507.179 205.823 497.603 216.995C488.027 228.167 475.829 236.717 461.009 242.645C446.189 248.573 428.633 251.537 408.341 251.537C388.277 251.537 370.835 248.573 356.015 242.645C341.195 236.489 328.997 227.939 319.421 216.995C309.845 205.823 302.663 192.485 297.875 176.981C293.315 161.477 291.035 144.263 291.035 125.339C291.035 100.031 295.139 78.0292 303.347 59.3332C311.783 40.6372 324.665 26.1592 341.993 15.8992C359.549 5.41118 381.779 0.167179 408.683 0.167179C435.815 0.167179 457.931 5.41118 475.031 15.8992C492.359 26.1592 505.127 40.7512 513.335 59.6752C521.543 78.3712 525.647 100.373 525.647 125.681ZM352.253 125.681C352.253 141.641 354.191 155.435 358.067 167.063C361.943 178.463 367.985 187.241 376.193 193.397C384.629 199.553 395.345 202.631 408.341 202.631C421.793 202.631 432.623 199.553 440.831 193.397C449.039 187.241 454.967 178.463 458.615 167.063C462.491 155.435 464.429 141.641 464.429 125.681C464.429 101.513 460.097 82.5892 451.433 68.9092C442.997 55.2292 428.747 48.3892 408.683 48.3892C395.459 48.3892 384.629 51.5812 376.193 57.9652C367.985 64.1212 361.943 73.0132 358.067 84.6412C354.191 96.0412 352.253 109.721 352.253 125.681ZM582.385 3.92917C613.621 3.92917 636.649 10.7692 651.469 24.4492C666.517 37.9012 674.041 56.7112 674.041 80.8792C674.041 91.8232 672.445 102.311 669.253 112.343C666.061 122.147 660.703 130.925 653.179 138.677C645.883 146.429 636.193 152.585 624.109 157.145C612.253 161.705 597.547 163.985 579.991 163.985H559.471V248.117H501.331V3.92917H582.385ZM580.333 51.4672H559.471V116.447H574.861C582.841 116.447 589.795 115.307 595.723 113.027C601.879 110.747 606.667 107.099 610.087 102.083C613.507 97.0672 615.217 90.5692 615.217 82.5892C615.217 72.5572 612.367 64.9192 606.667 59.6752C600.967 54.2032 592.189 51.4672 580.333 51.4672ZM749.582 248.117L694.862 63.7792H693.494C693.95 68.3392 694.406 74.9512 694.862 83.6152C695.318 92.0512 695.774 101.171 696.23 110.975C696.686 120.551 696.914 129.557 696.914 137.993V248.117H644.93V3.92917H723.59L777.968 184.505H779.336L835.424 3.92917H913.742V248.117H859.706V136.625C859.706 128.873 859.82 120.323 860.048 110.975C860.504 101.399 860.846 92.3932 861.074 83.9572C861.53 75.2932 861.872 68.6812 862.1 64.1212H860.732L804.302 248.117H749.582ZM1048.87 248.117L1033.82 195.791H949.345L934.297 248.117H870.685L953.791 2.90318H1028.35L1112.48 248.117H1048.87ZM1006.46 98.3212C1005.32 94.2172 1003.72 88.7452 1001.67 81.9052C999.847 74.8372 997.909 67.6552 995.857 60.3592C994.033 53.0632 992.551 46.9072 991.411 41.8912C990.499 46.9072 989.017 53.1772 986.965 60.7012C985.141 67.9972 983.317 75.1792 981.493 82.2472C979.669 89.0872 978.187 94.4452 977.047 98.3212L962.683 147.227H1020.82L1006.46 98.3212ZM1145.56 248.117H1087.42V52.1512H1024.15V3.92917H1208.83V52.1512H1145.56V248.117ZM1316.2 248.117H1173.59V3.92917H1316.2V51.1252H1231.73V97.9792H1310.05V145.175H1231.73V200.237H1316.2V248.117Z" fill="black"/>
</svg>
