<svg width="20" height="163" viewBox="0 0 20 163" fill="none" xmlns="http://www.w3.org/2000/svg">
<path d="M0.998906 6L9.93359 1V151.397L0.998906 157V6Z" fill="#DFD2D2" fill-opacity="0.4" stroke="#D1D1D1" stroke-linejoin="round"/>
<path d="M19.0004 6.18934L19.0002 156.999" stroke="#D1D1D1" stroke-linecap="round"/>
<path d="M9.93359 32L9.93359 162" stroke="#C4C4C4" stroke-linecap="round"/>
<path d="M9.83019 31L1 36.1316L9.83019 41.2632L19 36.1316L9.83019 31Z" fill="white" stroke="#D1D1D1" stroke-linejoin="round"/>
<path d="M9.83019 1L1 6.13158L9.83019 11.2632L19 6.13158L9.83019 1Z" stroke="#D1D1D1" stroke-linejoin="round"/>
<path d="M9.83019 61L1 66.1316L9.83019 71.2632L19 66.1316L9.83019 61Z" fill="white" stroke="#D1D1D1" stroke-linejoin="round"/>
<path d="M9.83019 91.2637L1 96.3953L9.83019 101.527L19 96.3953L9.83019 91.2637Z" fill="white" stroke="#D1D1D1" stroke-linejoin="round"/>
<path d="M9.83019 121.527L1 126.659L9.83019 131.791L19 126.659L9.83019 121.527Z" fill="white" stroke="#D1D1D1" stroke-linejoin="round"/>
<path d="M9.83019 152.051L1 157.182L9.83019 162.314L19 157.182L9.83019 152.051Z" fill="white" stroke="#D1D1D1" stroke-linejoin="round"/>
</svg>
